<svg xmlns="http://www.w3.org/2000/svg" viewBox="0 0 1024 683" width="1024" height="683" role="img">
  <title>Design Systems — biblioteca de componentes e tokens</title>
  <defs>
    <filter id="glow2" x="-50%" y="-50%" width="200%" height="200%">
      <feGaussianBlur stdDeviation="70"/>
    </filter>
    <filter id="cardShadow2" x="-30%" y="-30%" width="160%" height="160%">
      <feDropShadow dx="0" dy="20" stdDeviation="26" flood-color="#000000" flood-opacity="0.35"/>
    </filter>
  </defs>

  <rect width="1024" height="683" fill="#0f1e30"/>
  <ellipse cx="850" cy="50" rx="300" ry="300" fill="#4fd1ff" opacity="0.25" filter="url(#glow2)"/>
  <ellipse cx="70" cy="610" rx="170" ry="170" fill="none" stroke="#ffffff" stroke-opacity="0.08" stroke-width="1.5"/>

  <rect x="60" y="56" width="170" height="30" rx="15" fill="#ffffff" fill-opacity="0.08" stroke="#ffffff" stroke-opacity="0.18"/>
  <text x="145" y="76" text-anchor="middle" font-family="Arial, sans-serif" font-size="12" letter-spacing="1.5" fill="#bdeeff">DESIGN SYSTEMS</text>

  <g filter="url(#cardShadow2)">
    <rect x="470" y="150" width="470" height="470" rx="16" fill="#f7fafc"/>
  </g>

  <rect x="500" y="182" width="120" height="406" rx="10" fill="#eef2f6"/>
  <rect x="516" y="204" width="88" height="10" rx="5" fill="#b9c4d1"/>
  <rect x="516" y="230" width="88" height="10" rx="5" fill="#4fd1ff"/>
  <rect x="516" y="256" width="88" height="10" rx="5" fill="#c7d0da"/>
  <rect x="516" y="282" width="88" height="10" rx="5" fill="#c7d0da"/>
  <rect x="516" y="308" width="88" height="10" rx="5" fill="#c7d0da"/>

  <rect x="642" y="182" width="268" height="70" rx="10" fill="#eef2f6"/>
  <rect x="660" y="200" width="70" height="34" rx="17" fill="#1c6dd0"/>
  <rect x="742" y="200" width="70" height="34" rx="17" fill="none" stroke="#1c6dd0" stroke-width="2"/>
  <rect x="824" y="200" width="70" height="34" rx="17" fill="#dfe6ee"/>

  <rect x="642" y="266" width="268" height="60" rx="10" fill="#eef2f6"/>
  <rect x="660" y="284" width="180" height="24" rx="6" fill="#ffffff" stroke="#c7d0da"/>
  <circle cx="866" cy="296" r="9" fill="#1c6dd0"/>

  <rect x="642" y="340" width="268" height="70" rx="10" fill="#eef2f6"/>
  <circle cx="672" cy="375" r="16" fill="#1c6dd0"/>
  <circle cx="712" cy="375" r="16" fill="#4fd1ff"/>
  <circle cx="752" cy="375" r="16" fill="#7c5cff"/>
  <circle cx="792" cy="375" r="16" fill="#2ee6a6"/>
  <circle cx="832" cy="375" r="16" fill="#ffb648"/>

  <rect x="642" y="424" width="130" height="90" rx="10" fill="#eef2f6"/>
  <rect x="660" y="442" width="30" height="18" rx="9" fill="#1c6dd0"/>
  <circle cx="672" cy="451" r="7" fill="#ffffff"/>
  <rect x="660" y="472" width="94" height="8" rx="4" fill="#c7d0da"/>
  <rect x="660" y="488" width="70" height="8" rx="4" fill="#c7d0da"/>

  <rect x="780" y="424" width="130" height="90" rx="10" fill="#eef2f6"/>
  <rect x="798" y="446" width="94" height="10" rx="5" fill="#b9c4d1"/>
  <rect x="798" y="466" width="94" height="10" rx="5" fill="#b9c4d1"/>
  <rect x="798" y="486" width="60" height="10" rx="5" fill="#b9c4d1"/>

  <rect x="500" y="534" width="410" height="34" rx="8" fill="#eef2f6"/>
  <rect x="516" y="546" width="60" height="10" rx="5" fill="#1c6dd0"/>
  <rect x="590" y="546" width="60" height="10" rx="5" fill="#b9c4d1"/>
  <rect x="664" y="546" width="60" height="10" rx="5" fill="#b9c4d1"/>
</svg>
