<svg xmlns="http://www.w3.org/2000/svg" viewBox="0 0 1024 683" width="1024" height="683" role="img">
  <title>Landing Pages &amp; Web Design — página responsiva desktop e mobile</title>
  <defs>
    <filter id="glow6" x="-50%" y="-50%" width="200%" height="200%">
      <feGaussianBlur stdDeviation="70"/>
    </filter>
    <filter id="cardShadow6" x="-30%" y="-30%" width="160%" height="160%">
      <feDropShadow dx="0" dy="20" stdDeviation="26" flood-color="#000000" flood-opacity="0.35"/>
    </filter>
  </defs>

  <rect width="1024" height="683" fill="#101827"/>
  <ellipse cx="850" cy="60" rx="300" ry="300" fill="#4aa8ff" opacity="0.26" filter="url(#glow6)"/>
  <ellipse cx="70" cy="600" rx="170" ry="170" fill="none" stroke="#ffffff" stroke-opacity="0.08" stroke-width="1.5"/>

  <rect x="60" y="56" width="270" height="30" rx="15" fill="#ffffff" fill-opacity="0.08" stroke="#ffffff" stroke-opacity="0.18"/>
  <text x="195" y="76" text-anchor="middle" font-family="Arial, sans-serif" font-size="12" letter-spacing="1.5" fill="#c7e3ff">LANDING PAGES &amp; WEB DESIGN</text>

  <g filter="url(#cardShadow6)">
    <rect x="440" y="160" width="440" height="330" rx="14" fill="#f7fafc"/>
  </g>
  <circle cx="466" cy="184" r="5" fill="#ff6a6a"/>
  <circle cx="484" cy="184" r="5" fill="#ffc94d"/>
  <circle cx="502" cy="184" r="5" fill="#4fd18b"/>
  <rect x="440" y="200" width="440" height="1" fill="#e2e8f0"/>

  <rect x="466" y="224" width="220" height="24" rx="6" fill="#1c2534"/>
  <rect x="466" y="256" width="180" height="12" rx="6" fill="#8a94a3"/>
  <rect x="466" y="276" width="150" height="12" rx="6" fill="#8a94a3"/>
  <rect x="466" y="306" width="120" height="32" rx="16" fill="#4aa8ff"/>

  <rect x="712" y="220" width="164" height="140" rx="10" fill="#dceaff"/>
  <circle cx="794" cy="290" r="34" fill="#4aa8ff" opacity="0.55"/>

  <rect x="466" y="380" width="130" height="80" rx="8" fill="#eef2f6"/>
  <rect x="606" y="380" width="130" height="80" rx="8" fill="#eef2f6"/>
  <rect x="746" y="380" width="130" height="80" rx="8" fill="#eef2f6"/>
  <circle cx="500" cy="406" r="10" fill="#4aa8ff"/>
  <circle cx="640" cy="406" r="10" fill="#7c5cff"/>
  <circle cx="780" cy="406" r="10" fill="#2ee6a6"/>
  <rect x="482" y="428" width="80" height="8" rx="4" fill="#c3ccd6"/>
  <rect x="622" y="428" width="80" height="8" rx="4" fill="#c3ccd6"/>
  <rect x="762" y="428" width="80" height="8" rx="4" fill="#c3ccd6"/>

  <g filter="url(#cardShadow6)">
    <rect x="160" y="330" width="150" height="290" rx="20" fill="#f7fafc"/>
  </g>
  <rect x="160" y="330" width="150" height="290" rx="20" fill="none" stroke="#1c2534" stroke-width="6"/>
  <rect x="222" y="342" width="26" height="5" rx="2.5" fill="#1c2534"/>
  <rect x="176" y="366" width="118" height="70" rx="8" fill="#dceaff"/>
  <rect x="176" y="448" width="118" height="10" rx="5" fill="#1c2534"/>
  <rect x="176" y="466" width="90" height="8" rx="4" fill="#8a94a3"/>
  <rect x="176" y="480" width="70" height="8" rx="4" fill="#8a94a3"/>
  <rect x="176" y="506" width="118" height="26" rx="13" fill="#4aa8ff"/>
  <rect x="176" y="546" width="118" height="8" rx="4" fill="#eef2f6"/>
  <rect x="176" y="562" width="118" height="8" rx="4" fill="#eef2f6"/>
</svg>
